<?xml version="1.0" encoding="UTF-8"?>
<svg version="1.1" viewBox="0 0 1024 1024" width="1024" height="1024" xmlns="http://www.w3.org/2000/svg">
<path transform="translate(490)" d="m0 0h45l28 2 37 5 29 6 27 7 36 12 27 11 25 12 23 12 23 14 16 11 19 14 16 13 14 12 15 14 19 19 7 8 13 15 13 17 14 19 11 17 13 22 14 27 9 19 13 33 9 28 8 31 6 31 4 31 1 11v79l-4 35-5 29-8 33-9 29-10 27-11 25-14 28-16 27-14 21-14 19-13 16-12 14-14 15-19 19-8 7-15 13-17 13-19 14-17 11-22 13-27 14-19 9-33 13-28 9-31 8-31 6-31 4-11 1h-79l-35-4-29-5-33-8-29-9-27-10-25-11-28-14-27-16-21-14-19-14-16-13-14-12-15-14-19-19-7-8-13-15-13-17-14-19-11-17-13-22-14-27-9-19-13-33-9-28-8-31-6-31-4-31-2-28v-45l2-28 5-37 6-29 7-27 12-36 11-27 12-25 12-23 14-23 11-16 14-19 13-16 12-14 14-15 19-19 8-7 15-13 17-13 19-14 17-11 22-13 27-14 19-9 33-13 28-9 31-8 31-6 31-4z" fill="#E1E1E1"/>
<path transform="translate(405,281)" d="m0 0h3v327h50l3 2-8 7-9 8-14 8-9 2h-9l-10-4-9-5v14l4 1-1 2h-2l-1 93 7 2-1-10v-11h-2v10h-1v-47l1 2h2l1-5 4-8 4-2 1 76 6 3-1-68-2-1 1-4h10v77h2l1-91 4-9 5-7h2v112l7 1v-114l2-1 1 116h3v-123l3-2 1 127h1l1-116h2l1 117 5 1v-66l2-29 3-3v100h3v-78l2 1v78h2v-78h2v78h2v-81l-7-1v-2l7-1-8-2 1-3h7l-3-1-3-3-1 3-2-2v-10h3l1 6h4v-6l4-1v104h2v-67h2v68h2v-68h2v68h2v-68h2v68h2v-68h1v68h2v-68l2 1v68l21-2v-65l-1-24-3-16-5-13-7-14-6-8v-3l-3-1-5-8v-2h-2l-4-7-11-14-5-6-7-4-1-15v-118l5 5 14 18 16 21 14 18 12 16 14 18 24 32 16 21 9 12 3 1 75 1-1 105 5-3 8-7 1-10 1-270 1-77h1l1 29v325h2v-68l1-193 3-12 7-11 5-4h2v273l-5 5-12 13-6 7-8 7-12 13-5 5-8 9h-2v2l-15 15h-2l-1 3h-2l-2 4-3 1-1 3-7 5h-2v2l-8 6-16 6-12 1-11 3-7 5h-2l-2 4-16 7-5 3-13 5-5 3-13 2-28 7-17 3-12 2h-21l-8 1-10-2-30-2-16-6-12-5-10-3-16-8-21-11-7-6-11-8-5-4v-2l-3-1v-2h-2l-2-5-3-1-8-12-10-13-8-13-6-10-9-19-4-8-7-21-7-20-6-17-3-14-2-12v-13l-3-12v-22l2-15 9-30 8-18 6-10 3-7 8-14 6-9 9-14 6-10h2l2-4 6-9 3-5 6-8 7-11 28-35v3l-15 27-9 21-7 21-5 22-3 22-1 31 2 28 4 24 6 22 7 20 8 18 7 12 1-120 4-11 11-14h3l1 176 1 1v-181l6-9 3-2v203l3 3v2h2v-208l7-1 1 1v219h2l-1-219 2-1 1 222 1-2v-219h2l1 225 11 10 2 1-1-2v-220h2l1 224 2 1v-224l2-1v228h2l-1-39 1-37 4-7h2l1 88 2 1-1-90-1-4 3-4h2v12h3v-12h2v12l4-1v-12-2l-7-5v-2h-2l-2-4-1-35-1-72-2-35v-118l1-28 4-12 9-15 8-10z" fill="#959594"/>
<path transform="translate(563,262)" d="m0 0 13 1 2 1 1 6v202l1 20 13 17v2h2l6 8 1-5-2-31-1-11v-121l2-10 8-14 3-3h23l1 32 1 12 4-4h2v-2h2v-2l8-7 10-7h17v78l-1 270-1 10-11 10h-3v-103l1-2h-75l-5-3-9-12-16-21-12-16-16-21-15-20-28-36-9-12-16-21v132l5 2 5 4 11 14 6 8v3h2l6 10 2 1 4 7 4 5 6 13 5 13 3 16 1 27v63l-22 1-1-68-1 67h-5v-68h-2l1 59-1 9h-2v-68h-2v68h-2v-68h-2v67h-2l-1-13v-63l1-28-3 1v6l-5 1-2-7h-1v10l1 1 1-2 3 1v2l5 1v1h-9l-1 2 8 1 1 2h-8v2l7 1v81h-2v-78h-2v78h-2l-1-3v-75l-1 77h-3l-1-99-1 2-2 29-1 66h-5l-1-1v-117h-2v116h-3l-1-126-1 1v124l-5-1-1-115-1 114-7-1v-112h-2l-2 4-3 5-3 7-1 92-3-1v-77l-10 1-1 3 3 1v68l-6-2-1-1v-76l-5 5-4 10h-2v35h2l2 22-4-1-4-2v-81l1-12 2-2-3-1v-14l6 2 9 5 4 1h9l11-3 12-7 12-11 3-3-1-1h-50l-1-1v-301l1-30-1-7h2l11 14 14 18 20 26 14 18 10 13 14 18 13 17 16 21 10 13 8 10v-11l-3-24-3-21-1-25-1-82 4-7 6-5h2l1 5 14-5z" fill="#E2E2E2"/>
<path transform="translate(563,262)" d="m0 0 13 1 2 1 1 6v202l1 20 13 17v2l-9-3-11-8-10-12-10-13-11-14-12-15v-2h-2v-2h-2l-8-11-28-35-9-12-11-14-8-10-9-12-12-15-12-16-10-13-8-13-4-20 2-1 11 14 14 18 20 26 14 18 10 13 14 18 13 17 16 21 10 13 8 10v-11l-3-24-3-21-1-25-1-82 4-7 6-5h2l1 5 14-5z" fill="#E2E2E2"/>
<path transform="translate(405,281)" d="m0 0h3v327h50l3 2-8 7-9 8-14 8-9 2h-9l-10-4-13-7-6-4v-2h-2l-2-4-1-35-1-72-2-35v-118l1-28 4-12 9-15 8-10z" fill="#959594"/>
<path transform="translate(725,360)" d="m0 0 4 4 9 16 12 22 7 15 8 25 7 34 2 22v25l-2 19-2 12-4 16-6 21-9 21-4 9-3 6-9 15-5 5-2 3h-2l-1-2z" fill="#FEFEFE"/>
<path transform="translate(598,266)" d="m0 0 16 8 21 11 5 6 8 4 7 4 10 7 4 4 8 6 6 4 7 4 17 17 5 2 3 4v2h-14v-3l-38 1-10 7-6 6h-2v2h-2v2l-7 5-1-13v-32l-23 1-4 5-6 11-2 10v121l2 23 1 22-2 3-6-7v-2h-2l-10-14-4-5v-67h1l1 22 8 26 6 27 1 5h1z" fill="#FDFDFD"/>
<path transform="translate(541,263)" d="m0 0h1v179l9 12 22 28 6 8 14 19v2l-9-3-11-8-10-12-10-13-11-14-12-15v-2h-2v-2h-2l-8-11-28-35-9-12-11-14-8-10-9-12-12-15-12-16-10-13-8-13-4-20 2-1 11 14 14 18 20 26 14 18 10 13 14 18 13 17 16 21 10 13 8 10v-11l-3-24-3-21-1-25-1-82 4-7z" fill="#949493"/>
<path transform="translate(579,623)" d="m0 0 6 5 7 12 2 5 2 13 2-25 5 5 5 10 2 9 1 16 1 53v14l-2 5-10 5h-3l-1-2-1 3-15 6h-1z" fill="#E2E2E2"/>
<path transform="translate(702,412)" d="m0 0 5 2 4 9 3 12 2 18v95l-1 94v21l-2 9-10 12h-1z" fill="#FEFEFE"/>
<path transform="translate(663,347)" d="m0 0h1v253l-4-2-9-8-3-6 1-2 10 11-1-15-4-17-2-4-1-7-1-183 4-9 6-8z" fill="#959594"/>
<path transform="translate(576,264)" d="m0 0h2l1 6v82l-1 121-2-1-3-15-4-13-3-16-2-27-1-29-1-57v-26l4-13 6-8z" fill="#959594"/>
<path transform="translate(628,324)" d="m0 0h7v227l-2 2-6-27-3-17-2-32v-147l2-5z" fill="#959594"/>
<path transform="translate(406,283)" d="m0 0h1l1 325 49 1-3 2-7 2-8 1h-20l-11-1-6-3-1-25v-242l1-37 1-15z" fill="#656564"/>
<path transform="translate(426,274)" d="m0 0h5l8 10 7 10 13 18 7 10 8 16 10 15 4 8 7 10 7 12 5 7 6 12 5 8-3-1-12-16-10-13-13-17-28-36-20-26-14-18-2-5z" fill="#FCFCFC"/>
<path transform="translate(543,635)" d="m0 0 2 3 4 9 3 9 3 34 1 19v52l-7 2h-7v-125z" fill="#E2E2E2"/>
<path transform="translate(541,263)" d="m0 0h1v166l-1 9h-1l-3-30-4-26-1-25-1-82 4-7z" fill="#959594"/>
<path transform="translate(636,633)" d="m0 0 6 1 4 3 2 8 1 34-1 46-11 8h-2v-98z" fill="#E2E2E2"/>
<path transform="translate(682,410)" d="m0 0h1l1 10 10-6 4-1-2 4-7 11-3 12-1 194v65l-1 2h-2z" fill="#E2E2E2"/>
<path transform="translate(321,492)" d="m0 0h3v185l-3-2z" fill="#E2E2E2"/>
<path transform="translate(614,324)" d="m0 0h1v196h-1l-1-13-2-147v-29z" fill="#959594"/>
<path transform="translate(615,651)" d="m0 0 3 3 3 15 1 35v16l-1 20-6 3z" fill="#E2E2E2"/>
<path transform="translate(586,609)" d="m0 0h79l-2 4-27 3-2 4-9-3-10-1-1 3-9-3h-9l-4-3-6-3z" fill="#656564"/>
<path transform="translate(558,264)" d="m0 0h2v174h-1l-1-20-2-107v-40z" fill="#959594"/>
<path transform="translate(429,657)" d="m0 0h4l1 9v87l-5-1z" fill="#E2E2E2"/>
<path transform="translate(483,682)" d="m0 0h2v3l4 2 5 7 4 2-9 1v68h-2v-68h-2v67h-2l-1-13v-63z" fill="#EDEDED"/>
<path transform="translate(390,642)" d="m0 0 2 1v91h-3v-91z" fill="#E2E2E2"/>
<path transform="translate(380,642)" d="m0 0h3l1 87-4-1z" fill="#E4E4E4"/>
<path transform="translate(534,540)" d="m0 0 4 2 5 7-1 54-2 1-1-5-2-44-1-10z" fill="#666665"/>
<path transform="translate(563,257)" d="m0 0h10l6 3 1 1v5l-1-3h-16l-13 4-7 2-1-7 4-3z" fill="#FEFEFE"/>
<path transform="translate(385,643)" d="m0 0h2l1 21v68l-3-1z" fill="#E2E2E2"/>
<path transform="translate(418,676)" d="m0 0 2 1v71l-3-1v-70z" fill="#E7E7E7"/>
<path transform="translate(392,626)" d="m0 0h1v14l4 1-1 2h-2l-1 90h-1l-1-90-4-2 3-2v-11z" fill="#929291"/>
<path transform="translate(570,587)" d="m0 0h2l11 15-1 2-3-2-1 21-2-2-2-5-2-21z" fill="#686867"/>
<path transform="translate(635,550)" d="m0 0h2l10 20 2 10-5-3-9-14z" fill="#FEFEFE"/>
<path transform="translate(683,403)" d="m0 0 5 1 11 7v2l-16 8-1-12z" fill="#FEFEFE"/>
<path transform="translate(492,697)" d="m0 0h1l1 59-1 9h-2v-67z" fill="#E3E3E3"/>
<path transform="translate(459,643)" d="m0 0h1l2 17v8l-1 3-1 89h-1z" fill="#FEFEFE"/>
<path transform="translate(474,730)" d="m0 0h2v34h-2l-1-3z" fill="#FCFCFC"/>
<path transform="translate(418,658)" d="m0 0 2 2v7l-7-1 2-5z" fill="#959594"/>
<path transform="translate(502,751)" d="m0 0 2 1 1 13h-3z" fill="#FCFCFC"/>
</svg>
